<svg xmlns="http://www.w3.org/2000/svg" width="400" height="393.563" viewBox="0 0 400 393.563"><g fill-rule="evenodd"><path fill="#f8f7f8" d="M204.331 51.181c-.325.21-1.034.387-1.575.394-4.284.051-13.458 7.356-26.037 20.733-13.033 13.858-24.761 31.677-32.211 48.939-3.837 8.889-4.279 10.553-2.677 10.078 3.33-.988 7.736-1.519 14.426-1.741 6.199-.206 7.696-.364 7.956-.844.176-.325 1.362-2.716 2.634-5.315 5.352-10.926 13.829-24.022 22.283-34.425 11.667-14.355 25.64-27.81 30.457-29.325 2.868-.903-1.873-6.478-7.04-8.277-1.916-.667-7.299-.81-8.216-.217m60.826 23.268c-9.478 1.149-26.445 9.225-41.141 19.583-16.61 11.705-34.864 28.655-46.71 43.37-1.482 1.84-3.336 4.036-4.121 4.879l-1.427 1.532-3.3-.707c-17.852-3.828-36.642 1.513-49.188 13.98-5.233 5.201-6.006 6.39-11.004 16.934-2.575 5.435-2.788 20.326-.385 26.971 5.023 13.892 13.726 21.798 33.545 30.472 3.242 1.419 2.972-2.586 3.138 46.591l.149 43.999.883.883c.899.899 13.248 1.42 14.076.593.706-.705.917-10.505 1.187-55.153l.287-47.57 1.569-1.537c3.408-3.341 8.478-2.132 9.714 2.317.26.936.402 14.774.404 39.241.004 50.185.233 60.594 1.363 61.907.954 1.11 6.97 1.662 12.106 1.112 3.687-.395 3.445.986 4.074-23.253.534-20.529.784-23.724 2.097-26.774 7.149-16.612 18.488-24.608 34.889-24.605 7.333.002 9.312 1.216 9.413 5.777.083 3.762-2.129 5.193-9.077 5.87-6.886.671-11.269 1.701-12.344 2.9-.108.121-.905.745-1.771 1.387-5.729 4.247-9.59 10.455-10.426 16.761-.997 7.532-1.033 40.197-.044 41.09.788.713 1.743.764 17.07.913 22.967.223 28.858-.263 33.557-2.771.433-.231 1.267-.662 1.853-.958 4.156-2.1 11.403-11.36 14.102-18.018 2.699-6.66 3.194-24.59.907-32.874-1.223-4.429-4.209-11.939-5.972-15.02l-2.214-3.877c-9.761-17.111-35.576-32.242-55.06-32.274-7.781-.012-8.519-.304-8.531-3.371-.007-1.774.919-3.761 4.107-8.81.553-.876 1.005-1.74 1.005-1.92 0-.181.416-1.203.925-2.272 5.264-11.056 3.591-27.853-4.014-40.323-2.621-4.298-2.81-9.849-.335-9.849.36 0 8.18-2.768 11.889-4.208l2.362-.917c7.369-2.863 13.274-5.713 22.24-10.734 2.386-1.336 10.011-6.312 10.806-7.053.42-.391.879-.71 1.021-.71 1.655 0 21.461-18.352 27.153-25.159 1.754-2.097 5.118-6.904 5.118-7.311 0-.116.433-1.109.963-2.206 2.189-4.538 2.238-8.009.171-12.146-2.908-5.818-7.945-7.789-17.079-6.682m31.305 68.978c-1.061.529-1.482 1.637-1.541 4.053-.027 1.098-.393 2.106-1.145 3.15-.608.844-1.221 1.84-1.361 2.212s-.838.957-1.551 1.301c-.714.343-1.917.968-2.675 1.389-.877.487-2.133.766-3.455.767-3.351.001-3.904 2.716-.676 3.321.744.14 1.582.581 1.862.982.281.4 1.193.916 2.028 1.147 1.497.413 1.842.645 3.784 2.545 2.636 2.577 3.15 3.414 3.15 5.126 0 2.86 2.773 4.529 3.056 1.84.483-4.581.412-4.452 5.108-9.284 2.023-2.082 2.682-2.528 3.74-2.533 3.083-.015 3.314-2.804.262-3.155-1.86-.214-6.654-4.266-6.654-5.624 0-.29-.428-.928-.95-1.419-.697-.655-1.02-1.493-1.211-3.145-.343-2.953-.558-3.277-1.771-2.673m-59.551 26.584c-.683 1.924-2.212 3.217-3.802 3.217-1.194 0-1.014 1.037.257 1.491 1.509.538 3.028 2.016 3.624 3.524.506 1.281 1.199 1.398 1.199.203 0-1.069 1.692-3.208 3.051-3.856 1.37-.654 1.696-1.362.628-1.362-.877 0-3.679-2.993-3.679-3.93 0-1.459-.632-1.106-1.278.713m-76.056 1.56c10.534 5.399 7.228 20.978-4.444 20.94-11.41-.037-14.931-15.44-4.735-20.713 2.975-1.538 6.453-1.624 9.179-.227m-32.46 21.977c1.659 1.501.35 4.917-2.106 5.493-.858.202-1.31.014-2.263-.939-3.174-3.174 1.041-7.566 4.369-4.554m145.306 19.917c-1.218 1.217.609 2.785 2.233 1.916 1.415-.757.777-2.389-.934-2.389-.455 0-1.039.213-1.299.473m9.689 76.235-.122 10.103-1.304 3.74c-1.999 5.732-6.049 13.31-8.538 15.974-.217.232-.837 1.072-1.379 1.867-.541.795-1.117 1.446-1.279 1.448-.163.001-.296.281-.296.62 0 .882 12.406.439 14.764-.527 10.523-4.311 16.984-15.946 14.719-26.506-1.427-6.655-8.836-14.641-15.303-16.496l-1.14-.327zm-154.847 18.332c-4.205 1.334-6.885 3.406-9.185 7.1-4.053 6.514-2.912 8.867 4.308 8.878 8.667.013 8.617.066 8.617-9.13 0-7.858-.081-8.008-3.74-6.848"/><path fill="#92aab9" d="M202.756 50.717c-6.219 1.737-9.244 3.876-19.025 13.451-17.753 17.38-32.652 38.607-40.21 57.289a304 304 0 0 1-1.78 4.33c-2.794 6.356-2.502 6.914 2.992 5.714 2.975-.65 6.157-.934 13.535-1.207 11.149-.412 11.615-.482 12.499-1.883 2.421-3.836 13.46-16.161 28.619-31.954 14.537-15.145 18.919-20.268 20.546-24.022 6.163-14.222-2.915-25.7-17.176-21.718m9.791.681c5.167 1.799 9.908 7.374 7.04 8.277-4.817 1.515-18.79 14.97-30.457 29.325-8.454 10.403-16.931 23.499-22.283 34.425-1.272 2.599-2.458 4.99-2.634 5.315-.26.48-1.757.638-7.956.844-6.69.222-11.096.753-14.426 1.741-3.501 1.038 6.509-20.24 17.052-36.246 13.796-20.947 36.455-43.416 43.873-43.504.541-.007 1.25-.184 1.575-.394.917-.593 6.3-.45 8.216.217m52.414 22.214c-15.039 1.899-42.128 17.922-63.582 37.608-9.272 8.509-19.736 19.537-26.143 27.553-3.489 4.365-3.192 4.213-6.743 3.452-4.489-.962-20.887-.935-24.376.04-12.893 3.604-22.453 9.838-30.384 19.814-3.756 4.724-7.36 13.68-8.159 20.275-2.668 22.025 9.046 38.852 34.19 49.109 4.213 1.719 3.712-4.186 3.937 46.465.22 49.757-.065 45.42 3.059 46.452 2.386.787 12.46.429 13.365-.476 1.075-1.075 1.194-5.515 1.516-56.581l.292-46.26 1.468-1.476c3.04-3.06 7.847-1.415 8.412 2.878.127.961.275 23.539.331 50.173.11 53.183-.038 50.111 2.466 51.374 1.508.761 11.126 1.06 13.285.414 2.845-.852 2.856-.944 3.46-27.969.186-8.337.528-16.449.76-18.028 1.023-6.959 6.615-15.876 13.411-21.383 6.064-4.913 11.157-6.673 20.099-6.945 7.734-.235 8.932.088 9.974 2.693 1.952 4.879-.348 6.721-9.296 7.448-8.129.66-10.446 1.591-15.266 6.138-8.509 8.027-8.999 9.972-9.241 36.692-.176 19.343-.118 20.075 1.668 20.98 2.745 1.39 41.719.875 46.644-.616 8.747-2.649 17.532-12.39 21.137-23.436 1.749-5.361 2.113-23.619.585-29.331-4.84-18.094-14.45-31.224-30.885-42.202-11.261-7.522-21.749-10.962-35.039-11.491l-6.103-.244.009-2.165c.007-1.899.256-2.578 2.021-5.512 6.133-10.194 7.947-18.635 6.402-29.794-.935-6.757-1.991-9.551-7.221-19.111-1.27-2.321-1.433-2.924-1.329-4.908.141-2.7-.228-2.449 7.695-5.223 3.085-1.08 6.539-2.347 7.677-2.814a153 153 0 0 1 3.237-1.291c1.97-.744 17.248-8.379 18.732-9.361a48 48 0 0 1 2.756-1.672c4.394-2.422 13.282-8.947 18.879-13.861 21.472-18.849 29.021-31.076 24.524-39.721-3.371-6.479-8.998-8.852-18.224-7.687m8.05.792c8.891 1.456 13.162 10.358 9.054 18.873-.53 1.097-.963 2.09-.963 2.206 0 .407-3.364 5.214-5.118 7.311-5.692 6.807-25.498 25.159-27.153 25.159-.142 0-.601.319-1.021.71-.795.741-8.42 5.717-10.806 7.053-8.966 5.021-14.871 7.871-22.24 10.734l-2.362.917c-3.709 1.44-11.529 4.208-11.889 4.208-2.475 0-2.286 5.551.335 9.849 7.605 12.47 9.278 29.267 4.014 40.323-.509 1.069-.925 2.091-.925 2.272s-.452 1.044-1.005 1.92c-3.188 5.049-4.114 7.036-4.107 8.81.012 3.067.75 3.359 8.531 3.371 8.928.015 14.898 1.495 24.337 6.035 12.513 6.019 25.53 17.135 30.723 26.239l2.214 3.877c1.763 3.081 4.749 10.591 5.972 15.02 2.287 8.284 1.792 26.214-.907 32.874-2.699 6.658-9.946 15.918-14.102 18.018-.586.296-1.42.727-1.853.958-4.699 2.508-10.59 2.994-33.557 2.771-15.327-.149-16.282-.2-17.07-.913-.989-.893-.953-33.558.044-41.09.836-6.306 4.697-12.514 10.426-16.761.866-.642 1.663-1.266 1.771-1.387 1.075-1.199 5.458-2.229 12.344-2.9 6.948-.677 9.16-2.108 9.077-5.87-.101-4.561-2.08-5.775-9.413-5.777-16.401-.003-27.74 7.993-34.889 24.605-1.313 3.05-1.563 6.245-2.097 26.774-.629 24.239-.387 22.858-4.074 23.253-5.136.55-11.152-.002-12.106-1.112-1.13-1.313-1.359-11.722-1.363-61.907-.002-24.467-.144-38.305-.404-39.241-1.236-4.449-6.306-5.658-9.714-2.317l-1.569 1.537-.287 47.57c-.27 44.648-.481 54.448-1.187 55.153-.828.827-13.177.306-14.076-.593l-.883-.883-.149-43.999c-.166-49.177.104-45.172-3.138-46.591-19.819-8.674-28.522-16.58-33.545-30.472-2.403-6.645-2.19-21.536.385-26.971.156-.327 1.371-2.809 2.702-5.516 9.598-19.526 34.195-30.393 57.49-25.398l3.3.707 1.427-1.532c.785-.843 2.639-3.039 4.121-4.879 18.208-22.618 45.132-44.768 68.166-56.077 11.997-5.891 20.611-8.056 27.539-6.921m23.118 67c-1.521.974-2.035 2.085-2.035 4.4 0 .952-.293 2.066-.688 2.616-.379.527-1.044 1.649-1.477 2.493-.994 1.937-4.795 3.993-8.268 4.471l-2.362.325v1.963c0 1.798.1 2.009 1.181 2.506.65.299 1.624.833 2.166 1.187.541.353 1.427.823 1.968 1.043 3.74 1.518 7.474 5.767 7.487 8.519.007 1.716.315 2.147 2.051 2.872 1.991.832 2.543.2 2.889-3.308.212-2.15.467-2.915 1.204-3.608.515-.483.939-1.069.943-1.302.003-.233.668-1.053 1.476-1.823 2.875-2.738 4.065-3.522 5.349-3.522 4.383 0 3.992-4.245-.457-4.955-1.722-.275-6.375-4.24-6.375-5.433 0-.265-.423-1.056-.94-1.757-.647-.876-1.025-2.069-1.213-3.82-.378-3.532-.961-4.108-2.899-2.867m2.104 4.696c.191 1.652.514 2.49 1.211 3.145.522.491.95 1.129.95 1.419 0 1.358 4.794 5.41 6.654 5.624 3.052.351 2.821 3.14-.262 3.155-1.058.005-1.717.451-3.74 2.533-4.696 4.832-4.625 4.703-5.108 9.284-.283 2.689-3.056 1.02-3.056-1.84 0-1.712-.514-2.549-3.15-5.126-1.942-1.9-2.287-2.132-3.784-2.545-.835-.231-1.747-.747-2.028-1.147-.28-.401-1.118-.842-1.862-.982-3.228-.605-2.675-3.32.676-3.321 1.322-.001 2.578-.28 3.455-.767a62 62 0 0 1 2.675-1.389c.713-.344 1.411-.929 1.551-1.301s.753-1.368 1.361-2.212c.752-1.044 1.118-2.052 1.145-3.15.122-5.022 2.761-6.123 3.312-1.38m-61.385 21.684c-.345.492-.628 1.274-.628 1.738 0 1.094-1.832 2.919-2.931 2.919-2.658 0-2.613 1.727.082 3.15 1.434.756 2.072 1.416 2.759 2.854 1.12 2.344 2.822 2.415 2.859.118.018-1.068 1.033-2.235 3.057-3.512 1.99-1.257 2.058-1.694.375-2.399-1.701-.713-2.896-2.044-3.522-3.924-.62-1.864-1.215-2.138-2.051-.944m1.341 1.514c0 .937 2.802 3.93 3.679 3.93 1.068 0 .742.708-.628 1.362-1.359.648-3.051 2.787-3.051 3.856 0 1.195-.693 1.078-1.199-.203-.596-1.508-2.115-2.986-3.624-3.524-1.271-.454-1.451-1.491-.257-1.491 1.59 0 3.119-1.293 3.802-3.217.646-1.819 1.278-2.172 1.278-.713m-84.255 1.519c-12.307 4.036-10.297 21.653 2.477 21.694 9.851.032 14.528-11.585 7.501-18.632-2.701-2.709-7.016-4.033-9.978-3.062m6.39 1.362c9.821 4.344 7.492 18.791-3.14 19.474-6.243.4-10.271-3.18-10.654-9.471-.475-7.791 6.825-13.085 13.794-10.003m76.11 18.345c-.291.471.45.938.974.614.44-.272.151-.981-.4-.981-.191 0-.449.165-.574.367m-112.586 2.915c-1.418 1.418-1.352 3.133.178 4.663 1.969 1.969 5.108.377 5.108-2.59 0-2.592-3.424-3.935-5.286-2.073m3.778.52c.969.876.909 2.443-.136 3.555-1.051 1.119-2.045 1.159-3.081.124-2.271-2.272.84-5.831 3.217-3.679m100.382 2.234c-.676.815-.121 1.838.997 1.838.824 0 .95-.161.844-1.079-.139-1.208-1.13-1.616-1.841-.759m66.785.802c-1.476 1.477-1.184 4.186.452 4.186 1.63 0 2.167-2.369.894-3.941-.654-.808-.763-.828-1.346-.245m-22.15 15.848c-.794 1.902-.76 2.219.37 3.438 2.531 2.731 6.12-.364 4.157-3.584-1.201-1.969-3.677-1.889-4.527.146m3.656.622c1.207 1.207-.447 2.708-2.136 1.938-1.528-.696-.933-2.411.837-2.411.455 0 1.039.213 1.299.473m6.418 65.988c-.247.462-.238 2.702.028 6.364.731 10.096-.474 16.491-4.693 24.921-1.881 3.756-7.178 11.558-8.332 12.272-2.813 1.738 9.579 2.565 15.015 1.002 4.571-1.314 11.277-7.628 14.332-13.492l1.892-3.63.012-5.542.013-5.541-1.728-3.514c-3.469-7.052-14.891-15.919-16.539-12.84m5.549 2.109c17.204 9.122 15.395 33.815-3.03 41.363-2.358.966-14.764 1.409-14.764.527 0-.339.133-.619.296-.62s.738-.653 1.279-1.448c.542-.795 1.162-1.635 1.379-1.867 2.489-2.664 6.539-10.242 8.538-15.974l1.304-3.74.122-10.103.122-10.104 1.14.327c.626.18 2.253.917 3.614 1.639m-159.637 25.561c-6.755 1.59-14.131 11.024-11.883 15.198 1.209 2.246 2.285 2.56 8.265 2.414 7.722-.189 8.397-1.037 8.436-10.601.028-6.824-.758-7.967-4.818-7.011m3.182.83c.329.329.472 2.432.472 6.927 0 9.196.05 9.143-8.617 9.13-7.22-.011-8.361-2.364-4.308-8.878 3.012-4.838 10.485-9.147 12.453-7.179"/><path fill="#ddd" stroke="#ddd" d="M212.547 51.398c5.167 1.799 9.908 7.374 7.04 8.277-4.817 1.515-18.79 14.97-30.457 29.325-8.454 10.403-16.931 23.499-22.283 34.425-1.272 2.599-2.458 4.99-2.634 5.315-.26.48-1.757.638-7.956.844-6.69.222-11.096.753-14.426 1.741-3.501 1.038 6.509-20.24 17.052-36.246 13.796-20.947 36.455-43.416 43.873-43.504.541-.007 1.25-.184 1.575-.394.917-.593 6.3-.45 8.216.217m52.414 22.214c-15.039 1.899-42.128 17.922-63.582 37.608-9.272 8.509-19.736 19.537-26.143 27.553-3.489 4.365-3.192 4.213-6.743 3.452-4.489-.962-20.887-.935-24.376.04-12.893 3.604-22.453 9.838-30.384 19.814-3.756 4.724-7.36 13.68-8.159 20.275-2.668 22.025 9.046 38.852 34.19 49.109 4.213 1.719 3.712-4.186 3.937 46.465.22 49.757-.065 45.42 3.059 46.452 2.386.787 12.46.429 13.365-.476 1.075-1.075 1.194-5.515 1.516-56.581l.292-46.26 1.468-1.476c3.04-3.06 7.847-1.415 8.412 2.878.127.961.275 23.539.331 50.173.11 53.183-.038 50.111 2.466 51.374 1.508.761 11.126 1.06 13.285.414 2.845-.852 2.856-.944 3.46-27.969.186-8.337.528-16.449.76-18.028 1.023-6.959 6.615-15.876 13.411-21.383 6.064-4.913 11.157-6.673 20.099-6.945 7.734-.235 8.932.088 9.974 2.693 1.952 4.879-.348 6.721-9.296 7.448-8.129.66-10.446 1.591-15.266 6.138-8.509 8.027-8.999 9.972-9.241 36.692-.176 19.343-.118 20.075 1.668 20.98 2.745 1.39 41.719.875 46.644-.616 8.747-2.649 17.532-12.39 21.137-23.436 1.749-5.361 2.113-23.619.585-29.331-4.84-18.094-14.45-31.224-30.885-42.202-11.261-7.522-21.749-10.962-35.039-11.491l-6.103-.244.009-2.165c.007-1.899.256-2.578 2.021-5.512 6.133-10.194 7.947-18.635 6.402-29.794-.935-6.757-1.991-9.551-7.221-19.111-1.27-2.321-1.433-2.924-1.329-4.908.141-2.7-.228-2.449 7.695-5.223 3.085-1.08 6.539-2.347 7.677-2.814a153 153 0 0 1 3.237-1.291c1.97-.744 17.248-8.379 18.732-9.361a48 48 0 0 1 2.756-1.672c4.394-2.422 13.282-8.947 18.879-13.861 21.472-18.849 29.021-31.076 24.524-39.721-3.371-6.479-8.998-8.852-18.224-7.687m8.05.792c8.891 1.456 13.162 10.358 9.054 18.873-.53 1.097-.963 2.09-.963 2.206 0 .407-3.364 5.214-5.118 7.311-5.692 6.807-25.498 25.159-27.153 25.159-.142 0-.601.319-1.021.71-.795.741-8.42 5.717-10.806 7.053-8.966 5.021-14.871 7.871-22.24 10.734l-2.362.917c-3.709 1.44-11.529 4.208-11.889 4.208-2.475 0-2.286 5.551.335 9.849 7.605 12.47 9.278 29.267 4.014 40.323-.509 1.069-.925 2.091-.925 2.272s-.452 1.044-1.005 1.92c-3.188 5.049-4.114 7.036-4.107 8.81.012 3.067.75 3.359 8.531 3.371 8.928.015 14.898 1.495 24.337 6.035 12.513 6.019 25.53 17.135 30.723 26.239l2.214 3.877c1.763 3.081 4.749 10.591 5.972 15.02 2.287 8.284 1.792 26.214-.907 32.874-2.699 6.658-9.946 15.918-14.102 18.018-.586.296-1.42.727-1.853.958-4.699 2.508-10.59 2.994-33.557 2.771-15.327-.149-16.282-.2-17.07-.913-.989-.893-.953-33.558.044-41.09.836-6.306 4.697-12.514 10.426-16.761.866-.642 1.663-1.266 1.771-1.387 1.075-1.199 5.458-2.229 12.344-2.9 6.948-.677 9.16-2.108 9.077-5.87-.101-4.561-2.08-5.775-9.413-5.777-16.401-.003-27.74 7.993-34.889 24.605-1.313 3.05-1.563 6.245-2.097 26.774-.629 24.239-.387 22.858-4.074 23.253-5.136.55-11.152-.002-12.106-1.112-1.13-1.313-1.359-11.722-1.363-61.907-.002-24.467-.144-38.305-.404-39.241-1.236-4.449-6.306-5.658-9.714-2.317l-1.569 1.537-.287 47.57c-.27 44.648-.481 54.448-1.187 55.153-.828.827-13.177.306-14.076-.593l-.883-.883-.149-43.999c-.166-49.177.104-45.172-3.138-46.591-19.819-8.674-28.522-16.58-33.545-30.472-2.403-6.645-2.19-21.536.385-26.971.156-.327 1.371-2.809 2.702-5.516 9.598-19.526 34.195-30.393 57.49-25.398l3.3.707 1.427-1.532c.785-.843 2.639-3.039 4.121-4.879 18.208-22.618 45.132-44.768 68.166-56.077 11.997-5.891 20.611-8.056 27.539-6.921m23.118 67c-1.521.974-2.035 2.085-2.035 4.4 0 .952-.293 2.066-.688 2.616-.379.527-1.044 1.649-1.477 2.493-.994 1.937-4.795 3.993-8.268 4.471l-2.362.325v1.963c0 1.798.1 2.009 1.181 2.506.65.299 1.624.833 2.166 1.187.541.353 1.427.823 1.968 1.043 3.74 1.518 7.474 5.767 7.487 8.519.007 1.716.315 2.147 2.051 2.872 1.991.832 2.543.2 2.889-3.308.212-2.15.467-2.915 1.204-3.608.515-.483.939-1.069.943-1.302.003-.233.668-1.053 1.476-1.823 2.875-2.738 4.065-3.522 5.349-3.522 4.383 0 3.992-4.245-.457-4.955-1.722-.275-6.375-4.24-6.375-5.433 0-.265-.423-1.056-.94-1.757-.647-.876-1.025-2.069-1.213-3.82-.378-3.532-.961-4.108-2.899-2.867m2.104 4.696c.191 1.652.514 2.49 1.211 3.145.522.491.95 1.129.95 1.419 0 1.358 4.794 5.41 6.654 5.624 3.052.351 2.821 3.14-.262 3.155-1.058.005-1.717.451-3.74 2.533-4.696 4.832-4.625 4.703-5.108 9.284-.283 2.689-3.056 1.02-3.056-1.84 0-1.712-.514-2.549-3.15-5.126-1.942-1.9-2.287-2.132-3.784-2.545-.835-.231-1.747-.747-2.028-1.147-.28-.401-1.118-.842-1.862-.982-3.228-.605-2.675-3.32.676-3.321 1.322-.001 2.578-.28 3.455-.767a62 62 0 0 1 2.675-1.389c.713-.344 1.411-.929 1.551-1.301s.753-1.368 1.361-2.212c.752-1.044 1.118-2.052 1.145-3.15.122-5.022 2.761-6.123 3.312-1.38m-61.385 21.684c-.345.492-.628 1.274-.628 1.738 0 1.094-1.832 2.919-2.931 2.919-2.658 0-2.613 1.727.082 3.15 1.434.756 2.072 1.416 2.759 2.854 1.12 2.344 2.822 2.415 2.859.118.018-1.068 1.033-2.235 3.057-3.512 1.99-1.257 2.058-1.694.375-2.399-1.701-.713-2.896-2.044-3.522-3.924-.62-1.864-1.215-2.138-2.051-.944m1.341 1.514c0 .937 2.802 3.93 3.679 3.93 1.068 0 .742.708-.628 1.362-1.359.648-3.051 2.787-3.051 3.856 0 1.195-.693 1.078-1.199-.203-.596-1.508-2.115-2.986-3.624-3.524-1.271-.454-1.451-1.491-.257-1.491 1.59 0 3.119-1.293 3.802-3.217.646-1.819 1.278-2.172 1.278-.713m-84.255 1.519c-12.307 4.036-10.297 21.653 2.477 21.694 9.851.032 14.528-11.585 7.501-18.632-2.701-2.709-7.016-4.033-9.978-3.062m6.39 1.362c9.821 4.344 7.492 18.791-3.14 19.474-6.243.4-10.271-3.18-10.654-9.471-.475-7.791 6.825-13.085 13.794-10.003m76.11 18.345c-.291.471.45.938.974.614.44-.272.151-.981-.4-.981-.191 0-.449.165-.574.367m-112.586 2.915c-1.418 1.418-1.352 3.133.178 4.663 1.969 1.969 5.108.377 5.108-2.59 0-2.592-3.424-3.935-5.286-2.073m3.778.52c.969.876.909 2.443-.136 3.555-1.051 1.119-2.045 1.159-3.081.124-2.271-2.272.84-5.831 3.217-3.679m100.382 2.234c-.676.815-.121 1.838.997 1.838.824 0 .95-.161.844-1.079-.139-1.208-1.13-1.616-1.841-.759m66.785.802c-1.476 1.477-1.184 4.186.452 4.186 1.63 0 2.167-2.369.894-3.941-.654-.808-.763-.828-1.346-.245m-22.15 15.848c-.794 1.902-.76 2.219.37 3.438 2.531 2.731 6.12-.364 4.157-3.584-1.201-1.969-3.677-1.889-4.527.146m3.656.622c1.207 1.207-.447 2.708-2.136 1.938-1.528-.696-.933-2.411.837-2.411.455 0 1.039.213 1.299.473m6.418 65.988c-.247.462-.238 2.702.028 6.364.731 10.096-.474 16.491-4.693 24.921-1.881 3.756-7.178 11.558-8.332 12.272-2.813 1.738 9.579 2.565 15.015 1.002 4.571-1.314 11.277-7.628 14.332-13.492l1.892-3.63.012-5.542.013-5.541-1.728-3.514c-3.469-7.052-14.891-15.919-16.539-12.84m5.549 2.109c17.204 9.122 15.395 33.815-3.03 41.363-2.358.966-14.764 1.409-14.764.527 0-.339.133-.619.296-.62s.738-.653 1.279-1.448c.542-.795 1.162-1.635 1.379-1.867 2.489-2.664 6.539-10.242 8.538-15.974l1.304-3.74.122-10.103.122-10.104 1.14.327c.626.18 2.253.917 3.614 1.639m-159.637 25.561c-6.755 1.59-14.131 11.024-11.883 15.198 1.209 2.246 2.285 2.56 8.265 2.414 7.722-.189 8.397-1.037 8.436-10.601.028-6.824-.758-7.967-4.818-7.011m3.182.83c.329.329.472 2.432.472 6.927 0 9.196.05 9.143-8.617 9.13-7.22-.011-8.361-2.364-4.308-8.878 3.012-4.838 10.485-9.147 12.453-7.179"/></g></svg>
